<svg width="180" height="25" viewBox="0 0 180 25" fill="none" xmlns="http://www.w3.org/2000/svg">
<path d="M16.9453 9.63363H28.8819L36.0676 0.33252H24.131L16.9453 9.63363Z" fill="#0230E8" style="fill:#0230E8;fill:color(display-p3 0.0078 0.1882 0.9098);fill-opacity:1;"/>
<mask id="mask0_205_2916" style="mask-type:alpha" maskUnits="userSpaceOnUse" x="16" y="0" width="21" height="10">
<path d="M16.9238 9.63363H28.8604L36.0461 0.33252H24.1095L16.9238 9.63363Z" fill="#0230E8" style="fill:#0230E8;fill:color(display-p3 0.0078 0.1882 0.9098);fill-opacity:1;"/>
</mask>
<g mask="url(#mask0_205_2916)">
<path d="M5.51523 10.0996L-2.0332 0.33252H13.0986C15.2124 0.33252 17.2495 1.37307 18.7983 3.24989L28.7745 15.3662H36.588L43.8923 24.6674H26.0188C23.8422 24.6674 21.7562 23.5693 20.2005 21.6032L10.9777 9.94644L5.50826 10.106L5.51523 10.0996Z" fill="black" fill-opacity="0.46" style="fill:black;fill-opacity:0.46;"/>
</g>
<path d="M0 24.6668H9.62042L16.8131 15.3657H7.18567L0 24.6668Z" fill="#0230E8" style="fill:#0230E8;fill:color(display-p3 0.0078 0.1882 0.9098);fill-opacity:1;"/>
<path d="M7.17605 9.94644L0 0.33252H10.252C12.3659 0.33252 14.403 1.37307 15.9517 3.24989L25.9279 15.3662H29.0066L36.3108 24.6674H25.193C23.0163 24.6674 21.0117 23.4055 19.4559 21.4393L15.2155 15.3662L10.8422 9.94644H7.17605Z" fill="#0230E8" style="fill:#0230E8;fill:color(display-p3 0.0078 0.1882 0.9098);fill-opacity:1;"/>
<path d="M70.2422 0H81.2149L86.6096 7.16663L92.0043 0H102.977L90.636 14.6001V24.4681H82.1773V14.6001L70.2422 0Z" fill="#111111" style="fill:#111111;fill:color(display-p3 0.0667 0.0667 0.0667);fill-opacity:1;"/>
<path d="M74.4648 17.8808V24.4681H47.0098L60.9512 6.60033H47.0098V0H74.4648L60.5234 17.8808H74.4648Z" fill="#111111" style="fill:#111111;fill:color(display-p3 0.0667 0.0667 0.0667);fill-opacity:1;"/>
<path d="M165.743 19.2802H158.927V25H152.078V0L167.161 0.0530223C168.949 0.0795334 170.559 0.516967 171.996 1.36532C173.434 2.22031 174.58 3.36691 175.441 4.8184C176.295 6.26988 176.726 7.87381 176.726 9.6368C176.726 11.3998 176.315 12.9242 175.5 14.3492C174.686 15.7741 173.586 16.9274 172.208 17.8022L177.421 25H169.87L165.737 19.2802H165.743ZM159.106 6.2964V12.1421H167.121C168.029 12.1421 168.79 11.7776 169.406 11.0551C169.757 10.6442 169.976 10.1206 170.029 9.58378C170.142 8.50345 169.777 7.62195 168.936 6.92603C168.413 6.49523 167.744 6.2964 167.068 6.2964H159.099H159.106Z" fill="#111111" style="fill:#111111;fill:color(display-p3 0.0667 0.0667 0.0667);fill-opacity:1;"/>
<path d="M140.644 19.2802H133.97V25H127.264V0L142.032 0.0530223C143.783 0.0795334 145.359 0.516967 146.767 1.36532C148.174 2.22031 149.296 3.36691 150.14 4.8184C150.976 6.26988 151.398 7.87381 151.398 9.6368C151.398 11.3998 150.996 12.9242 150.198 14.3492C149.4 15.7741 148.323 16.9274 146.974 17.8022L152.079 25H144.685L140.638 19.2802H140.644ZM134.152 6.2964V12.1421H142C142.888 12.1421 143.634 11.7776 144.237 11.0551C144.581 10.6442 144.795 10.1206 144.847 9.58378C144.957 8.50345 144.601 7.62195 143.777 6.92603C143.264 6.49523 142.609 6.2964 141.948 6.2964H134.145H134.152Z" fill="#111111" style="fill:#111111;fill:color(display-p3 0.0667 0.0667 0.0667);fill-opacity:1;"/>
<path d="M108.105 13.2622V25H100.332V0H108.105V12.4867L117.845 0H128.837L118.588 12.7784L128.843 25H117.8L108.105 13.2622Z" fill="#111111" style="fill:#111111;fill:color(display-p3 0.0667 0.0667 0.0667);fill-opacity:1;"/>
</svg>
